<?xml version="1.0" encoding="UTF-8"?>
<svg version="1.1" xmlns="http://www.w3.org/2000/svg" width="256" height="256">
<path d="M0 0 C84.48 0 168.96 0 256 0 C256 84.48 256 168.96 256 256 C171.52 256 87.04 256 0 256 C0 171.52 0 87.04 0 0 Z " fill="#3563A8" transform="translate(0,0)"/>
<path d="M0 0 C12.04782814 3.54643793 24.44695631 5.64565109 36.8046875 7.7890625 C38.04162354 8.00361084 39.27855957 8.21815918 40.55297852 8.43920898 C52.32595144 10.43956829 63.67302491 11.37378755 75.6171875 11.4140625 C76.36284973 11.41668091 77.10851196 11.41929932 77.87677002 11.42199707 C92.43882719 11.4274314 106.42756902 9.8098602 120.7421875 7.1015625 C121.68288086 6.93076172 122.62357422 6.75996094 123.59277344 6.58398438 C133.25961103 4.82386757 142.73064865 2.66138748 152.203125 0.05078125 C164.88730535 -3.35126712 175.52857006 -5.99625239 187.7421875 0.1015625 C194.49747475 5.01562965 198.43065153 11.91660656 199.7421875 20.1015625 C200.9086862 32.36646315 198.08927608 42.19762838 190.5546875 51.9765625 C168.98758897 76.54305884 129.471293 79.59471696 99.04345703 81.92504883 C91.90543437 82.30670763 84.7640377 82.34394826 77.6171875 82.3515625 C76.78436249 82.35323425 75.95153748 82.35490601 75.09347534 82.35662842 C61.32193152 82.35827607 47.94049915 81.47905742 34.29980469 79.46875 C32.0558465 79.14659335 29.81643665 78.87275844 27.5625 78.6328125 C4.59242946 76.06411644 -22.30100581 70.223042 -37.64453125 51.4296875 C-45.04685578 40.74739835 -47.60412788 30.27209718 -45.8984375 17.38671875 C-44.19102756 10.08408028 -39.96336496 4.84754477 -34.2578125 0.1015625 C-23.20578999 -6.5463965 -11.61123889 -3.53164596 0 0 Z " fill="#7998C5" transform="translate(51.2578125,164.8984375)"/>
<path d="M0 0 C14.40817038 10.96112102 23.73437129 23.81483117 26.79296875 41.9453125 C28.7854475 57.75448815 26.11185769 73.7890248 16.26953125 86.7265625 C5.22625682 100.45881268 -8.9912924 109.89189027 -26.85839844 111.97460938 C-43.33341498 113.27162527 -58.37164811 109.04454087 -71.34765625 98.625 C-84.31312878 87.42929523 -92.78652275 72.73962094 -94.15234375 55.390625 C-94.9419359 38.23882557 -89.59180843 23.48909333 -78.35546875 10.4765625 C-58.12718647 -11.06437037 -25.17516014 -16.72625631 0 0 Z " fill="#7897C4" transform="translate(102.73046875,31.2734375)"/>
<path d="M0 0 C11.22866455 9.08335059 15.6411085 20.60229756 17.3125 34.62109375 C17.94904223 46.73528808 12.93858643 58.68984815 5.41015625 67.95703125 C-3.0602509 77.10507097 -14.38941485 81.72716953 -26.625 83.34765625 C-40.62083654 83.87710401 -52.61979026 79.10129087 -62.8125 69.6875 C-71.79278186 60.06115469 -76.48737277 47.57244091 -76.20703125 34.421875 C-75.09093382 21.36564092 -70.71725224 10.59895107 -60.98828125 1.625 C-42.89778892 -13.1601568 -18.98686447 -14.13770124 0 0 Z " fill="#7897C4" transform="translate(225,36)"/>
<path d="M0 0 C4.61581142 2.18643699 6.72864085 4.49599804 9 9 C9.82885269 14.54808604 9.7240695 19.47140883 7.3125 24.5625 C4.21064779 27.8320199 1.61649202 29.75850523 -2.90234375 30.43359375 C-9.05071801 30.44150672 -13.31314296 30.4465054 -18 26 C-21.88937897 20.55860924 -21.79042609 15.48149391 -21 9 C-16.63929544 -0.20593186 -9.3488659 -1.1401056 0 0 Z " fill="#3563A8" transform="translate(93,41)"/>
<path d="M0 0 C4.61581142 2.18643699 6.72864085 4.49599804 9 9 C9.82885269 14.54808604 9.7240695 19.47140883 7.3125 24.5625 C4.21064779 27.8320199 1.61649202 29.75850523 -2.90234375 30.43359375 C-9.05071801 30.44150672 -13.31314296 30.4465054 -18 26 C-21.88937897 20.55860924 -21.79042609 15.48149391 -21 9 C-16.63929544 -0.20593186 -9.3488659 -1.1401056 0 0 Z " fill="#3563A8" transform="translate(212,36)"/>
</svg>
